<?xml version="1.0" encoding="UTF-8" standalone="no"?>
<svg width="4px" height="16px" viewBox="0 0 4 16" version="1.1" xmlns="http://www.w3.org/2000/svg" xmlns:xlink="http://www.w3.org/1999/xlink">
    <!-- Generator: Sketch 47.1 (45422) - http://www.bohemiancoding.com/sketch -->
    <title>Hotdog</title>
    <desc>Created with Sketch.</desc>
    <defs></defs>
    <g id="Page-1" stroke="none" stroke-width="1" fill="none" fill-rule="evenodd">
        <g id="Artboard" transform="translate(-42.000000, -26.000000)" fill="#111705">
            <path d="M44,38 L44,38 C45.1045695,38 46,38.8954305 46,40 C46,41.1045695 45.1045695,42 44,42 C42.8954305,42 42,41.1045695 42,40 C42,38.8954305 42.8954305,38 44,38 L44,38 Z M44,32 L44,32 C45.1045695,32 46,32.8954305 46,34 C46,35.1045695 45.1045695,36 44,36 C42.8954305,36 42,35.1045695 42,34 C42,32.8954305 42.8954305,32 44,32 L44,32 Z M44,26 L44,26 C45.1045695,26 46,26.8954305 46,28 L46,28 C46,29.1045695 45.1045695,30 44,30 C42.8954305,30 42,29.1045695 42,28 L42,28 L42,28 C42,26.8954305 42.8954305,26 44,26 L44,26 Z" id="Combined-Shape"></path>
        </g>
    </g>
</svg>